<svg xmlns="http://www.w3.org/2000/svg" viewBox="0 0 500 500">
    <g id="Ebene_1" transform="matrix(5.28827, 0, 0, 5.28827, -1260.264038, -1046.807007)" style="">
        <g transform="matrix(1, 0, 0, 1, 225.913116, 212.568588)">
            <path class="st0"
                d="M45,55.2c-3.7,3.6-7.4,4.9-12.3,4.9c-5,0-9.4-1.6-13-4.9c-4.8-4.3-7.3-9.9-7.3-16.4c0-6,2.3-11.3,6.7-15.5   c3.9-3.8,8.6-5.7,13.9-5.7c5,0,8.9,1.7,11.7,5.3V4.7h12.3v55.1H45V55.2z M35.3,49c5.3,0,9.7-4.3,9.7-10.1c0-6-4.4-10.5-10.2-10.5   c-5.8,0-10.3,4.7-10.3,10.3C24.6,44.6,29.1,49,35.3,49z"
                style="fill: rgb(21, 112, 184);"></path>
            <g></g>
        </g>
        <path class="st1"
            d="M 332.862 256.178 C 330.662 265.477 322.462 273.178 311.262 273.178 C 298.862 273.178 289.262 263.378 289.262 251.178 C 289.262 239.077 298.662 229.277 310.962 229.277 C 321.862 229.277 330.662 236.478 332.762 246.577 L 320.362 246.577 C 319.062 243.777 316.562 240.777 311.462 240.777 C 305.562 240.478 301.662 245.277 301.662 251.178 C 301.662 257.178 305.562 261.577 311.462 261.577 C 316.562 261.577 319.062 258.577 320.362 256.077 L 332.862 256.077 L 332.862 256.178 Z"
            style="fill: rgb(236, 102, 8); stroke-width: 1px;"></path>
    </g>
</svg>