<svg version="1.1" xmlns="http://www.w3.org/2000/svg" x="0" y="0" viewBox="0 0 530 65" width="265px" height="34px" alt="durchchecker logo">
  <g fill="#1570b8">
    <path d="M45 55.2c-3.7 3.6-7.4 4.9-12.3 4.9-5 0-9.4-1.6-13-4.9-4.8-4.3-7.3-9.9-7.3-16.4 0-6 2.3-11.3 6.7-15.5 3.9-3.8 8.6-5.7 13.9-5.7 5 0 8.9 1.7 11.7 5.3V4.7H57v55.1H45v-4.6zM35.3 49c5.3 0 9.7-4.3 9.7-10.1 0-6-4.4-10.5-10.2-10.5-5.8 0-10.3 4.7-10.3 10.3.1 5.9 4.6 10.3 10.8 10.3zm65.8-31v41.7H89.7v-5.6c-2.6 4.3-6.6 6.4-12 6.4-8.6 0-14.3-5.4-14.3-15V18h12.4v22.6c0 5.8 1.2 8.5 6 8.5s7.3-2.9 7.3-8.5V18h12zm18.3 0v5.7c2-4.2 5.5-6.3 10.5-6.3v11.3c-8-.1-9.7 2.6-9.7 10.3v20.7h-12.4V18h11.6zm62.5 41.7V4.5h11.7v18.7c2.6-4 6.4-6 11.7-6 8.6 0 14.2 5.4 14.2 15v27.5h-12.3V37.1c0-5.8-1.2-8.5-6-8.5s-7.4 2.9-7.4 8.5v22.6h-11.9z"></path>
    <path d="M176.5 43.8c-2.2 9.3-10.4 17-21.6 17-12.4 0-22-9.8-22-22 0-12.1 9.4-21.9 21.7-21.9 10.9 0 19.7 7.2 21.8 17.3H164c-1.3-2.8-3.8-5.8-8.9-5.8-5.9-.3-9.8 4.5-9.8 10.4 0 6 3.9 10.4 9.8 10.4 5.1 0 7.6-3 8.9-5.5h12.5z"></path>
  </g>
  <g fill="#ec6608">
    <g transform="translate(93,0)">
      <path d="M176.5 43.8c-2.2 9.3-10.4 17-21.6 17-12.4 0-22-9.8-22-22 0-12.1 9.4-21.9 21.7-21.9 10.9 0 19.7 7.2 21.8 17.3H164c-1.3-2.8-3.8-5.8-8.9-5.8-5.9-.3-9.8 4.5-9.8 10.4 0 6 3.9 10.4 9.8 10.4 5.1 0 7.6-3 8.9-5.5h12.5z"></path>
    </g>
    <g transform="matrix(1, 0, 0, 1, 92, 0)">
      <path d="M 183.5 4.5 L 195.2 4.5 L 195.2 23.2 C 197.8 19.2 201.6 17.2 206.9 17.2 C 215.5 17.2 221.1 22.6 221.1 32.2 L 221.1 59.7 L 208.8 59.7 L 208.8 37.1 C 208.8 31.3 207.6 28.6 202.8 28.6 C 198 28.6 195.4 31.5 195.4 37.1 L 195.4 59.7 L 183.5 59.7 L 183.5 4.5 Z"></path>
    </g>
    <path d="M 360.6 47.5 C 356.6 56.2 349.7 60.6 340.3 60.6 C 333.9 60.6 328.8 58.4 324.5 53.9 C 320.5 49.6 318.4 44.3 318.4 38.5 C 318.4 32.7 320.7 27.3 324.8 23.2 C 329 19 334.5 16.7 340.2 16.7 C 353.9 16.7 363.1 26.2 362.6 42.5 L 331.2 42.5 C 332.3 46.9 335.5 49.9 340.8 49.9 C 343.3 49.9 345.3 49.2 347.2 47.6 L 360.6 47.5 Z M 350.2 34.4 C 348.7 30.1 345.2 27.8 340.3 27.8 C 335.2 27.8 331.5 30.4 330.7 34.4 L 350.2 34.4 Z"></path>
    <g transform="matrix(1, 0, 0, 1, 224, 0)">
      <path d="M 187.5 43.8 C 185.3 53.1 177.1 60.8 165.9 60.8 C 153.5 60.8 143.9 51 143.9 38.8 C 143.9 26.7 153.3 16.9 165.6 16.9 C 176.5 16.9 185.3 24.1 187.4 34.2 L 175 34.2 C 173.7 31.4 171.2 28.4 166.1 28.4 C 160.2 28.1 156.3 32.9 156.3 38.8 C 156.3 44.8 160.2 49.2 166.1 49.2 C 171.2 49.2 173.7 46.2 175 43.7 L 187.5 43.7 L 187.5 43.8 Z"></path>
    </g>
    <g transform="matrix(1, 0, 0, 1, 43, 0)">
      <path d="M 387 4.5 L 387 33.8 L 399.6 18 L 414.3 18 L 397.8 36.6 L 413.1 59.7 L 398.3 59.7 L 387 40.5 L 387 59.7 L 375 59.7 L 375 4.5 L 387 4.5 Z"></path>
    </g>
    <g transform="matrix(1, 0, 0, 1, 118, 0)">
      <path d="M 379.6 47.5 C 375.6 56.2 368.7 60.6 359.3 60.6 C 352.9 60.6 347.8 58.4 343.5 53.9 C 339.5 49.6 337.4 44.3 337.4 38.5 C 337.4 32.7 339.7 27.3 343.8 23.2 C 348 19 353.5 16.7 359.2 16.7 C 372.9 16.7 382.1 26.2 381.6 42.5 L 350.2 42.5 C 351.3 46.9 354.5 49.9 359.8 49.9 C 362.3 49.9 364.3 49.2 366.2 47.6 L 379.6 47.5 Z M 369.2 34.4 C 367.7 30.1 364.2 27.8 359.3 27.8 C 354.2 27.8 350.5 30.4 349.7 34.4 L 369.2 34.4 Z"></path>
    </g>
    <path d="M 518 18 L 518 23.7 C 520 19.5 523.5 17.4 528.5 17.4 L 528.5 28.7 C 520.5 28.6 518.8 31.3 518.8 39 L 518.8 59.7 L 506.4 59.7 L 506.4 18 L 518 18 Z"></path>
  </g>
</svg>